<?xml version="1.0" encoding="UTF-8" standalone="no"?>
<!DOCTYPE svg PUBLIC "-//W3C//DTD SVG 1.1//EN"
 "http://www.w3.org/Graphics/SVG/1.1/DTD/svg11.dtd">
<!-- Generated by graphviz version 2.43.0 (0)
 -->
<!-- Title: G Pages: 1 -->
<svg width="1736pt" height="159pt"
 viewBox="0.00 0.00 1736.00 159.00" xmlns="http://www.w3.org/2000/svg" xmlns:xlink="http://www.w3.org/1999/xlink">
<g id="graph0" class="graph" transform="scale(1 1) rotate(0) translate(4 155)">
<title>G</title>
<polygon fill="white" stroke="transparent" points="-4,4 -4,-155 1732,-155 1732,4 -4,4"/>
<!-- my_wallet/api/cmd -->
<g id="node1" class="node">
<title>my_wallet/api/cmd</title>
<g id="a_node1"><a xlink:href="https://pkg.go.dev/my_wallet/api/cmd" xlink:title="my_wallet/api/cmd\l41 / 1.1KB\l" target="_graphviz">
<polygon fill="none" stroke="#077491" stroke-width="2" stroke-opacity="0.698039" points="144,-97 0,-97 0,-61 144,-61 144,-97"/>
<text text-anchor="start" x="8" y="-82" font-family="Times,serif" font-size="10.00">my_wallet/api/cmd</text>
<text text-anchor="start" x="8" y="-71" font-family="Times,serif" font-size="10.00">41 / 1.1KB</text>
</a>
</g>
</g>
<!-- my_wallet/api/server -->
<g id="node6" class="node">
<title>my_wallet/api/server</title>
<g id="a_node6"><a xlink:href="https://pkg.go.dev/my_wallet/api/server" xlink:title="my_wallet/api/server\l53 / 1.6KB\l" target="_graphviz">
<polygon fill="none" stroke="#1e9107" stroke-width="2" stroke-opacity="0.698039" points="396,-97 252,-97 252,-61 396,-61 396,-97"/>
<text text-anchor="start" x="260" y="-82" font-family="Times,serif" font-size="10.00">my_wallet/api/server</text>
<text text-anchor="start" x="260" y="-71" font-family="Times,serif" font-size="10.00">53 / 1.6KB</text>
</a>
</g>
</g>
<!-- my_wallet/api/cmd&#45;&gt;my_wallet/api/server -->
<g id="edge1" class="edge">
<title>my_wallet/api/cmd:e&#45;&gt;my_wallet/api/server</title>
<path fill="none" stroke="#1e9107" stroke-width="2" stroke-opacity="0.698039" d="M144,-79C175.83,-79 210.84,-79 241.4,-79"/>
<polygon fill="#1e9107" fill-opacity="0.698039" stroke="#1e9107" stroke-width="2" stroke-opacity="0.698039" points="241.58,-82.5 251.58,-79 241.58,-75.5 241.58,-82.5"/>
</g>
<!-- my_wallet/api/endpoints -->
<g id="node2" class="node">
<title>my_wallet/api/endpoints</title>
<g id="a_node2"><a xlink:href="https://pkg.go.dev/my_wallet/api/endpoints" xlink:title="my_wallet/api/endpoints\l145 / 4.2KB\l" target="_graphviz">
<polygon fill="none" stroke="#915107" stroke-width="2" stroke-opacity="0.698039" points="936,-122 792,-122 792,-86 936,-86 936,-122"/>
<text text-anchor="start" x="800" y="-107" font-family="Times,serif" font-size="10.00">my_wallet/api/endpoints</text>
<text text-anchor="start" x="800" y="-96" font-family="Times,serif" font-size="10.00">145 / 4.2KB</text>
</a>
</g>
</g>
<!-- my_wallet/api/entities -->
<g id="node3" class="node">
<title>my_wallet/api/entities</title>
<g id="a_node3"><a xlink:href="https://pkg.go.dev/my_wallet/api/entities" xlink:title="my_wallet/api/entities\l10 / 338B\l" target="_graphviz">
<polygon fill="none" stroke="#917307" stroke-width="2" stroke-opacity="0.698039" points="1728,-82 1584,-82 1584,-46 1728,-46 1728,-82"/>
<text text-anchor="start" x="1592" y="-67" font-family="Times,serif" font-size="10.00">my_wallet/api/entities</text>
<text text-anchor="start" x="1592" y="-56" font-family="Times,serif" font-size="10.00">10 / 338B</text>
</a>
</g>
</g>
<!-- my_wallet/api/endpoints&#45;&gt;my_wallet/api/entities -->
<g id="edge2" class="edge">
<title>my_wallet/api/endpoints:e&#45;&gt;my_wallet/api/entities</title>
<path fill="none" stroke="#917307" stroke-width="2" stroke-opacity="0.698039" d="M936,-104C1167.66,-104 1440.65,-83.04 1573.78,-71.47"/>
<polygon fill="#917307" fill-opacity="0.698039" stroke="#917307" stroke-width="2" stroke-opacity="0.698039" points="1574.23,-74.94 1583.89,-70.58 1573.62,-67.97 1574.23,-74.94"/>
</g>
<!-- my_wallet/api/services -->
<g id="node7" class="node">
<title>my_wallet/api/services</title>
<g id="a_node7"><a xlink:href="https://pkg.go.dev/my_wallet/api/services" xlink:title="my_wallet/api/services\l44 / 1.3KB\l" target="_graphviz">
<polygon fill="none" stroke="#8e0791" stroke-width="2" stroke-opacity="0.698039" points="1188,-78 1044,-78 1044,-42 1188,-42 1188,-78"/>
<text text-anchor="start" x="1052" y="-63" font-family="Times,serif" font-size="10.00">my_wallet/api/services</text>
<text text-anchor="start" x="1052" y="-52" font-family="Times,serif" font-size="10.00">44 / 1.3KB</text>
</a>
</g>
</g>
<!-- my_wallet/api/endpoints&#45;&gt;my_wallet/api/services -->
<g id="edge3" class="edge">
<title>my_wallet/api/endpoints:e&#45;&gt;my_wallet/api/services</title>
<path fill="none" stroke="#8e0791" stroke-width="2" stroke-opacity="0.698039" d="M936,-104C977.98,-104 1023.93,-92.45 1058.76,-81.18"/>
<polygon fill="#8e0791" fill-opacity="0.698039" stroke="#8e0791" stroke-width="2" stroke-opacity="0.698039" points="1059.89,-84.5 1068.28,-78.02 1057.69,-77.85 1059.89,-84.5"/>
</g>
<!-- my_wallet/api/models -->
<g id="node4" class="node">
<title>my_wallet/api/models</title>
<g id="a_node4"><a xlink:href="https://pkg.go.dev/my_wallet/api/models" xlink:title="my_wallet/api/models\l9 / 232B\l" target="_graphviz">
<polygon fill="none" stroke="#912007" stroke-width="2" stroke-opacity="0.698039" points="144,-151 0,-151 0,-115 144,-115 144,-151"/>
<text text-anchor="start" x="8" y="-136" font-family="Times,serif" font-size="10.00">my_wallet/api/models</text>
<text text-anchor="start" x="8" y="-125" font-family="Times,serif" font-size="10.00">9 / 232B</text>
</a>
</g>
</g>
<!-- my_wallet/api/respository/user -->
<g id="node5" class="node">
<title>my_wallet/api/respository/user</title>
<g id="a_node5"><a xlink:href="https://pkg.go.dev/my_wallet/api/respository/user" xlink:title="my_wallet/api/respository/user\l109 / 3.2KB\l" target="_graphviz">
<polygon fill="none" stroke="#91070a" stroke-width="2" stroke-opacity="0.698039" points="1476,-36 1296,-36 1296,0 1476,0 1476,-36"/>
<text text-anchor="start" x="1304" y="-21" font-family="Times,serif" font-size="10.00">my_wallet/api/respository/user</text>
<text text-anchor="start" x="1304" y="-10" font-family="Times,serif" font-size="10.00">109 / 3.2KB</text>
</a>
</g>
</g>
<!-- my_wallet/api/respository/user&#45;&gt;my_wallet/api/entities -->
<g id="edge4" class="edge">
<title>my_wallet/api/respository/user:e&#45;&gt;my_wallet/api/entities</title>
<path fill="none" stroke="#917307" stroke-width="2" stroke-opacity="0.698039" d="M1476,-18C1518.97,-18 1565.96,-30.59 1601.01,-42.59"/>
<polygon fill="#917307" fill-opacity="0.698039" stroke="#917307" stroke-width="2" stroke-opacity="0.698039" points="1599.97,-45.94 1610.57,-45.95 1602.3,-39.33 1599.97,-45.94"/>
</g>
<!-- my_wallet/api/server&#45;&gt;my_wallet/api/endpoints -->
<g id="edge5" class="edge">
<title>my_wallet/api/server:e&#45;&gt;my_wallet/api/endpoints</title>
<path fill="none" stroke="#915107" stroke-width="2" stroke-opacity="0.698039" d="M396,-79C448.89,-79 452.34,-117.62 504,-129 582.13,-146.21 604.19,-134.55 684,-129 716.06,-126.77 751.12,-122.33 781.65,-117.79"/>
<polygon fill="#915107" fill-opacity="0.698039" stroke="#915107" stroke-width="2" stroke-opacity="0.698039" points="782.45,-121.21 791.81,-116.25 781.4,-114.29 782.45,-121.21"/>
</g>
<!-- my_wallet/api/server&#45;&gt;my_wallet/api/respository/user -->
<g id="edge6" class="edge">
<title>my_wallet/api/server:e&#45;&gt;my_wallet/api/respository/user</title>
<path fill="none" stroke="#91070a" stroke-width="2" stroke-opacity="0.698039" d="M396,-79C444.4,-79 455.81,-69.55 504,-65 743.36,-42.42 803.9,-45.39 1044,-33 1125.34,-28.8 1217.63,-24.79 1285.67,-21.97"/>
<polygon fill="#91070a" fill-opacity="0.698039" stroke="#91070a" stroke-width="2" stroke-opacity="0.698039" points="1286.1,-25.46 1295.95,-21.55 1285.82,-18.46 1286.1,-25.46"/>
</g>
<!-- my_wallet/api/server&#45;&gt;my_wallet/api/services -->
<g id="edge7" class="edge">
<title>my_wallet/api/server:e&#45;&gt;my_wallet/api/services</title>
<path fill="none" stroke="#8e0791" stroke-width="2" stroke-opacity="0.698039" d="M396,-79C444.03,-79 455.99,-76.48 504,-75 693.69,-69.16 916.56,-64.16 1033.66,-61.67"/>
<polygon fill="#8e0791" fill-opacity="0.698039" stroke="#8e0791" stroke-width="2" stroke-opacity="0.698039" points="1034.04,-65.17 1043.97,-61.46 1033.89,-58.17 1034.04,-65.17"/>
</g>
<!-- my_wallet/api/transports/http -->
<g id="node8" class="node">
<title>my_wallet/api/transports/http</title>
<g id="a_node8"><a xlink:href="https://pkg.go.dev/my_wallet/api/transports/http" xlink:title="my_wallet/api/transports/http\l64 / 1.8KB\l" target="_graphviz">
<polygon fill="none" stroke="#070d91" stroke-width="2" stroke-opacity="0.698039" points="684,-120 504,-120 504,-84 684,-84 684,-120"/>
<text text-anchor="start" x="512" y="-105" font-family="Times,serif" font-size="10.00">my_wallet/api/transports/http</text>
<text text-anchor="start" x="512" y="-94" font-family="Times,serif" font-size="10.00">64 / 1.8KB</text>
</a>
</g>
</g>
<!-- my_wallet/api/server&#45;&gt;my_wallet/api/transports/http -->
<g id="edge8" class="edge">
<title>my_wallet/api/server:e&#45;&gt;my_wallet/api/transports/http</title>
<path fill="none" stroke="#070d91" stroke-width="2" stroke-opacity="0.698039" d="M396,-79C427.85,-79 462.4,-82 493.54,-85.84"/>
<polygon fill="#070d91" fill-opacity="0.698039" stroke="#070d91" stroke-width="2" stroke-opacity="0.698039" points="493.16,-89.32 503.52,-87.11 494.05,-82.37 493.16,-89.32"/>
</g>
<!-- my_wallet/api/services&#45;&gt;my_wallet/api/entities -->
<g id="edge9" class="edge">
<title>my_wallet/api/services:e&#45;&gt;my_wallet/api/entities</title>
<path fill="none" stroke="#917307" stroke-width="2" stroke-opacity="0.698039" d="M1188,-60C1323.2,-60 1480.41,-61.7 1573.59,-62.88"/>
<polygon fill="#917307" fill-opacity="0.698039" stroke="#917307" stroke-width="2" stroke-opacity="0.698039" points="1573.75,-66.38 1583.8,-63.01 1573.84,-59.38 1573.75,-66.38"/>
</g>
<!-- my_wallet/api/services&#45;&gt;my_wallet/api/respository/user -->
<g id="edge10" class="edge">
<title>my_wallet/api/services:e&#45;&gt;my_wallet/api/respository/user</title>
<path fill="none" stroke="#91070a" stroke-width="2" stroke-opacity="0.698039" d="M1188,-60C1232.94,-60 1282.41,-49.42 1320.53,-38.87"/>
<polygon fill="#91070a" fill-opacity="0.698039" stroke="#91070a" stroke-width="2" stroke-opacity="0.698039" points="1321.8,-42.15 1330.47,-36.06 1319.89,-35.42 1321.8,-42.15"/>
</g>
<!-- my_wallet/api/transports/http&#45;&gt;my_wallet/api/endpoints -->
<g id="edge11" class="edge">
<title>my_wallet/api/transports/http:e&#45;&gt;my_wallet/api/endpoints</title>
<path fill="none" stroke="#915107" stroke-width="2" stroke-opacity="0.698039" d="M684,-102C715.83,-102 750.84,-102.32 781.4,-102.7"/>
<polygon fill="#915107" fill-opacity="0.698039" stroke="#915107" stroke-width="2" stroke-opacity="0.698039" points="781.53,-106.21 791.58,-102.84 781.62,-99.21 781.53,-106.21"/>
</g>
</g>
</svg>
